<svg width="108" height="120" viewBox="0 0 108 120" fill="none" xmlns="http://www.w3.org/2000/svg">
<g opacity="0.3">
<path opacity="0.5" d="M64.8234 94.2793L43.8969 69.9776L66.3245 79.7424L64.8234 94.2793ZM80.4358 18.4926L87.664 25.8767L75.1635 25.8982L80.4358 18.4926ZM45.9202 53.0467L45.8792 26.2028L83.625 41.2102L45.9202 53.0467ZM19.735 70.1555L14.4527 55.8844L20.436 43.4928L19.735 70.1555ZM19.735 70.1555L45.9202 53.0467L27.0048 59.829L19.735 70.1555Z" stroke="#04FAE7" stroke-width="0.75" stroke-miterlimit="10" stroke-linejoin="round"/>
<path d="M75.1508 25.2491C75.4881 25.207 75.8676 25.502 75.8129 25.8856C75.8552 26.2227 75.5602 26.6021 75.1765 26.5473C74.8392 26.5895 74.4597 26.2944 74.5144 25.9109C74.4721 25.5737 74.8135 25.2913 75.1508 25.2491ZM87.6302 25.059C88.1108 25.0674 88.4903 25.3624 88.482 25.8429C88.4737 26.3234 88.1787 26.7028 87.6981 26.6943C87.2174 26.6859 86.8379 26.3909 86.8462 25.9104C86.8545 25.4299 87.1495 25.0506 87.6302 25.059ZM80.3808 17.5064C80.8867 17.4432 81.359 17.932 81.3507 18.4125C81.4141 18.9183 80.9252 19.3904 80.4445 19.382C79.9386 19.4452 79.4663 18.9563 79.4746 18.4758C79.4829 17.9953 79.9002 17.498 80.3808 17.5064ZM27.7764 59.6983C27.8651 60.1325 27.5448 60.5835 27.1106 60.672C26.6763 60.7605 26.2251 60.4402 26.1365 60.0061C26.0478 59.572 26.3681 59.121 26.8024 59.0324C27.3083 58.9692 27.6878 59.2642 27.7764 59.6983Z" fill="#73FFF2"/>
<path d="M20.7396 42.6329C20.2646 42.4653 19.7437 42.7144 19.5762 43.1893C19.4087 43.6642 19.658 44.185 20.133 44.3526C20.6081 44.5202 21.129 44.271 21.2965 43.7962C21.464 43.3213 21.2147 42.8005 20.7396 42.6329Z" fill="#73FFF2"/>
<path d="M15.6333 55.7369C15.7178 56.4112 15.347 57.0056 14.6725 57.0899C13.9979 57.1742 13.4034 56.8033 13.3189 56.129C13.2344 55.4546 13.6052 54.8603 14.2797 54.776C14.8826 54.6664 15.4771 55.0372 15.6333 55.7369ZM71.8276 36.7261C71.8235 36.9664 71.7476 37.1813 71.5073 37.1771C71.267 37.1729 71.052 37.0971 71.0561 36.8568C71.0603 36.6166 71.1361 36.4016 71.3764 36.4058C71.545 36.3847 71.8065 36.5575 71.8276 36.7261ZM46.6202 52.8908C46.6625 53.2279 46.4392 53.6326 46.1019 53.6747C45.7646 53.7169 45.3598 53.4935 45.3176 53.1563C45.2753 52.8192 45.4986 52.4145 45.8359 52.3724C46.1732 52.3302 46.5063 52.5283 46.6202 52.8908ZM84.7762 41.3746C84.8396 41.8803 84.5193 42.3313 84.0851 42.4199C83.5792 42.4831 83.128 42.1628 83.0393 41.7287C82.9759 41.2229 83.2963 40.7719 83.7305 40.6834C84.1647 40.5948 84.6159 40.9151 84.7762 41.3746ZM34.8133 29.4696C34.8808 29.7352 34.7333 29.9248 34.4677 29.9923C34.2021 30.0597 34.0124 29.9122 33.9448 29.6467C33.8773 29.3812 34.0248 29.1915 34.2904 29.124C34.556 29.0566 34.8174 29.2294 34.8133 29.4696ZM21.0379 69.8899C21.1941 70.5896 20.701 71.3019 20.0012 71.4579C19.3014 71.6139 18.5887 71.1208 18.4325 70.4211C18.2764 69.7215 18.7694 69.0091 19.4692 68.8532C20.169 68.6972 20.8817 69.1903 21.0379 69.8899ZM47.1821 25.9372C47.3383 26.6368 46.8452 27.3491 46.1454 27.5051C45.4455 27.6611 44.7329 27.168 44.5768 26.4683C44.4206 25.7687 44.9136 25.0564 45.6134 24.9004C46.3133 24.7444 47.0259 25.2375 47.1821 25.9372ZM66.6703 79.2198C66.9318 79.3926 67.0457 79.755 66.8476 80.088C66.6748 80.3493 66.3123 80.4632 65.9792 80.2651C65.7177 80.0923 65.6038 79.7298 65.8019 79.3968C65.9747 79.1355 66.3372 79.0217 66.6703 79.2198ZM44.6641 68.7174C45.402 69.1388 45.554 70.0787 45.1579 70.7446C44.7365 71.4823 43.7964 71.634 43.1302 71.2379C42.3922 70.8164 42.2402 69.8765 42.6363 69.2106C43.0325 68.5446 43.9262 68.2959 44.6641 68.7174ZM34.4542 104.514C34.7156 104.687 34.7832 104.952 34.6104 105.214C34.4376 105.475 34.172 105.542 33.9106 105.37C33.6491 105.197 33.5816 104.931 33.7544 104.67C33.9019 104.48 34.2644 104.366 34.4542 104.514ZM92.124 69.6681C92.3854 69.8409 92.4994 70.2034 92.3266 70.4647C92.1538 70.7261 91.7912 70.8399 91.5298 70.6671C91.2684 70.4943 91.1545 70.1318 91.3272 69.8705C91.5253 69.5375 91.8625 69.4953 92.124 69.6681ZM65.3166 93.567C65.7214 93.7903 65.8565 94.3214 65.5615 94.7007C65.3381 95.1054 64.807 95.2403 64.4274 94.9452C64.0226 94.7219 63.8876 94.1908 64.1826 93.8115C64.3807 93.4785 64.9119 93.3436 65.3166 93.567Z" fill="#73FFF2"/>
</g>
</svg>
