<svg width="127" height="126" viewBox="0 0 127 126" fill="none" xmlns="http://www.w3.org/2000/svg">
<path opacity="0.5" d="M67.9231 75.7318L95.9296 98.8714L85.9923 59.2439" stroke="#04FAE7" stroke-width="0.75" stroke-miterlimit="10" stroke-linejoin="round"/>
<path opacity="0.5" d="M98.6503 66.5484L67.9233 75.7319L85.9925 59.244L98.6503 66.5484ZM35.8384 21.3596L45.5299 17.7751L40.4468 29.1955L35.8384 21.3596ZM53.2931 66.9736L28.7708 56.0532L57.8789 27.7215L53.2931 66.9736ZM58.2227 97.8617L43.0385 96.8584L34.1687 86.3379L58.2227 97.8617ZM58.2227 97.8617L53.2931 66.9736L51.7633 87.0099L58.2227 97.8617Z" stroke="#04FAE7" stroke-width="0.75" stroke-miterlimit="10" stroke-linejoin="round"/>
<path opacity="0.5" d="M53.2933 66.9736L34.1689 86.3379L51.3861 86.9659" stroke="#04FAE7" stroke-width="0.75" stroke-miterlimit="10" stroke-linejoin="round"/>
<path d="M39.849 28.9422C39.9482 28.6171 40.3724 28.391 40.7002 28.5975C41.0253 28.6966 41.2512 29.1208 41.0446 29.4486C40.9454 29.7737 40.5211 29.9998 40.1933 29.7933C39.8682 29.6942 39.7498 29.2673 39.849 28.9422ZM44.7696 17.4723C44.9734 17.0369 45.3977 16.8109 45.8329 17.0146C46.2682 17.2183 46.494 17.6425 46.2901 18.0778C46.0863 18.5132 45.662 18.7392 45.2268 18.5355C44.7916 18.3317 44.5657 17.9076 44.7696 17.4723ZM34.9156 21.0071C35.0644 20.5195 35.7035 20.2879 36.1387 20.4916C36.6263 20.6402 36.8577 21.2792 36.6538 21.7146C36.505 22.2022 35.8659 22.4338 35.4307 22.2301C34.9954 22.0264 34.7117 21.4425 34.9156 21.0071ZM51.959 86.2521C52.3914 86.3484 52.6724 86.8249 52.576 87.2574C52.4795 87.69 52.0029 87.9711 51.5704 87.8748C51.1379 87.7785 50.857 87.302 50.9534 86.8695C51.1022 86.3819 51.5265 86.1558 51.959 86.2521Z" fill="#73FFF2"/>
<path d="M33.5077 85.7099C33.1608 86.0752 33.1755 86.6524 33.5406 86.9992C33.9058 87.3459 34.483 87.3309 34.8299 86.9657C35.1768 86.6004 35.162 86.0232 34.7969 85.6764C34.4318 85.3297 33.8546 85.3447 33.5077 85.7099Z" fill="#73FFF2"/>
<path d="M43.3856 95.7205C44.0358 95.9186 44.4269 96.4997 44.2285 97.15C44.0302 97.8002 43.4489 98.1915 42.7988 97.9934C42.1487 97.7952 41.7575 97.2141 41.9559 96.5639C42.1019 95.9688 42.6832 95.5775 43.3856 95.7205ZM48.9696 36.661C49.1873 36.7628 49.3525 36.9198 49.2506 37.1375C49.1487 37.3551 48.9916 37.5205 48.774 37.4186C48.5564 37.3168 48.3911 37.1598 48.493 36.9421C48.5426 36.7796 48.8071 36.6114 48.9696 36.661ZM53.4364 66.271C53.7615 66.3701 54.0397 66.7391 53.9405 67.0642C53.8413 67.3893 53.4722 67.6677 53.1471 67.5686C52.8221 67.4696 52.5438 67.1005 52.643 66.7754C52.7422 66.4503 53.059 66.2271 53.4364 66.271ZM58.4988 26.7378C58.9864 26.8864 59.2674 27.3629 59.1709 27.7954C59.0222 28.2831 58.5456 28.5642 58.1131 28.468C57.6255 28.3194 57.3445 27.8428 57.441 27.4103C57.5374 26.9778 58.014 26.6966 58.4988 26.7378ZM27.2359 67.4889C27.5058 67.5356 27.6188 67.7477 27.5719 68.0177C27.5251 68.2877 27.313 68.4007 27.043 68.354C26.773 68.3072 26.6601 68.0951 26.7069 67.8252C26.7538 67.5552 27.0182 67.387 27.2359 67.4889ZM58.512 96.564C59.2145 96.7071 59.6635 97.4479 59.5202 98.1505C59.3769 98.853 58.6358 99.3023 57.9334 99.1593C57.2309 99.0162 56.7819 98.2754 56.9252 97.5728C57.0685 96.8703 57.8096 96.421 58.512 96.564ZM29.0601 54.7555C29.7626 54.8986 30.2115 55.6395 30.0683 56.342C29.925 57.0445 29.1839 57.4938 28.4815 57.3508C27.779 57.2077 27.33 56.4669 27.4733 55.7643C27.6166 55.0618 28.3577 54.6125 29.0601 54.7555ZM85.6565 58.7151C85.9209 58.547 86.2983 58.5909 86.5215 58.9077C86.6895 59.1721 86.6454 59.5495 86.3286 59.7727C86.0641 59.9409 85.6867 59.8969 85.4636 59.5802C85.2956 59.3158 85.3397 58.9383 85.6565 58.7151ZM67.0859 74.5172C67.7718 74.0156 68.6919 74.2605 69.1382 74.894C69.6395 75.5798 69.3943 76.4999 68.7607 76.9464C68.0747 77.448 67.1546 77.2032 66.7084 76.5697C66.2621 75.9362 66.3999 75.0188 67.0859 74.5172ZM95.5965 98.4501C95.861 98.2819 96.1309 98.3287 96.299 98.5931C96.467 98.8575 96.4201 99.1275 96.1557 99.2956C95.8912 99.4637 95.6212 99.417 95.4532 99.1526C95.3403 98.9405 95.3844 98.5631 95.5965 98.4501ZM87.3271 31.5797C87.5916 31.4115 87.969 31.4555 88.1371 31.7199C88.3051 31.9843 88.261 32.3617 87.9965 32.5298C87.7321 32.698 87.3547 32.654 87.1866 32.3896C86.9635 32.0729 87.0627 31.7478 87.3271 31.5797ZM98.2013 65.8074C98.5705 65.5291 99.1104 65.6226 99.3363 66.0467C99.6145 66.4158 99.5208 66.9557 99.0965 67.1818C98.7274 67.4601 98.1875 67.3666 97.9616 66.9425C97.7385 66.6257 97.8322 66.0858 98.2013 65.8074Z" fill="#73FFF2"/>
</svg>
